<?xml version="1.0" encoding="UTF-8"?>
<svg id="Layer_1" xmlns="http://www.w3.org/2000/svg" viewBox="0 0 16 16">
  <defs>
    <style>
      .cls-1 {
        fill: #ec2027;
        stroke: #ec2027;
        stroke-miterlimit: 10;
        stroke-width: .2px;
      }
    </style>
  </defs>
  <path class="cls-1" d="M14.43,14.3H1.57c-.7,0-1.28-.58-1.28-1.3V3.46c0-.72.57-1.3,1.28-1.3h12.86c.7,0,1.28.58,1.28,1.3v9.54c0,.72-.57,1.3-1.28,1.3ZM1.57,2.94c-.27,0-.5.23-.5.52v9.54c0,.29.22.52.5.52h12.86c.27,0,.5-.23.5-.52V3.46c0-.29-.22-.52-.5-.52H1.57Z"/>
  <path class="cls-1" d="M8,11.92c-.34,0-.66-.14-.91-.38L.41,4.68c-.07-.07-.11-.17-.11-.27v-.95c0-.72.57-1.3,1.28-1.3h12.86c.7,0,1.28.58,1.28,1.3v.95c0,.1-.04.2-.11.27l-6.69,6.86c-.24.25-.56.38-.91.38ZM1.07,4.25l6.58,6.74c.19.19.51.19.7,0l6.58-6.74v-.79c0-.29-.22-.52-.5-.52H1.57c-.27,0-.5.23-.5.52v.79Z"/>
  <path class="cls-1" d="M.89,13.97c-.1,0-.2-.04-.27-.11-.15-.15-.16-.4,0-.55l4.37-4.48c.15-.15.4-.16.55,0,.15.15.16.4,0,.55L1.17,13.85c-.08.08-.18.12-.28.12Z"/>
  <path class="cls-1" d="M14.96,14.12c-.1,0-.2-.04-.28-.12l-4.37-4.48c-.15-.15-.15-.4,0-.55.15-.15.4-.15.55,0l4.37,4.48c.15.15.15.4,0,.55-.08.07-.17.11-.27.11Z"/>
</svg>
