<?xml version="1.0" encoding="UTF-8"?>
<svg id="Layer_1" xmlns="http://www.w3.org/2000/svg" viewBox="0 0 16 16">
  <defs>
    <style>
      .cls-1 {
        fill: #ec2027;
        stroke: #ec2027;
        stroke-miterlimit: 10;
        stroke-width: .3px;
      }
    </style>
  </defs>
  <path class="cls-1" d="M3.27,15.77h0c-.43,0-.85-.03-1.26-.08-.07,0-.13-.04-.18-.09-.03-.04-.12-.12-.22-.23-.5-.53-.79-.84-.87-.96-.25-.37-.43-.77-.56-1.19-.04-.12.01-.26.12-.33l5.03-3.39c.11-.07.25-.07.35.01.35.27.65.6.9.96.21.31.37.64.5,1,.01,0,.03,0,.04,0,.02,0,.06,0,.1-.04,0,0,.67-.66,1.02-1.01.29-.29,1.88-1.89,2.68-2.69.27-.27.45-.45.45-.46.04-.04.05-.1.03-.15-.35-.12-.67-.28-.98-.49-.37-.25-.69-.55-.96-.9-.08-.1-.09-.24-.01-.35L12.67.58c.2-.3.27-.4.48-.33.42.12.82.31,1.19.56.13.08.47.4,1.02.93.09.09.16.16.2.19.04.04.07.09.09.15.85,3.52-.97,7.82-4.52,10.71-2.34,1.9-5.2,2.99-7.85,2.99ZM2.19,15.11c.35.04.71.06,1.07.06,2.52,0,5.24-1.04,7.48-2.86,3.35-2.72,5.08-6.74,4.34-10.02-.04-.03-.08-.08-.14-.13-.23-.22-.83-.79-.94-.87-.26-.17-.53-.31-.82-.41-.53.79-2.61,3.87-3.14,4.66.2.23.43.43.69.6.28.19.59.34.92.45.07.02.12.06.16.12.25.29.23.72-.04,1,0,0-.19.19-.45.45-.8.8-2.39,2.4-2.68,2.69-.35.35-1.01,1-1.02,1.01-.14.14-.32.21-.52.21-.18,0-.35-.06-.49-.18-.04-.04-.07-.08-.09-.14-.11-.34-.26-.66-.46-.95-.17-.26-.37-.49-.6-.69L.82,13.25c.1.29.24.56.41.82.07.1.59.65.81.88.06.06.11.12.15.16Z"/>
  <path class="cls-1" d="M10.67,6.72c-.06,0-.12-.02-.17-.05-.14-.09-.17-.28-.08-.41l3.47-5.11c.09-.14.28-.17.41-.08.14.09.17.28.08.41l-3.47,5.11c-.06.08-.15.13-.25.13Z"/>
  <path class="cls-1" d="M1.18,14.57c-.1,0-.19-.05-.25-.13-.09-.14-.06-.32.08-.41l5.11-3.47c.14-.09.32-.06.41.08.09.14.06.32-.08.41l-5.11,3.47c-.05.03-.11.05-.17.05Z"/>
</svg>