<?xml version="1.0" encoding="UTF-8"?>
<svg xmlns="http://www.w3.org/2000/svg" version="1.1" viewBox="0 0 16 16">
  <defs>
    <style>
      .cls-1 {
        stroke-width: .2px;
      }

      .cls-1, .cls-2, .cls-3 {
        fill: #ec2027;
        stroke: #ec2027;
        stroke-miterlimit: 10;
      }

      .cls-2 {
        stroke-width: .3px;
      }

      .cls-3 {
        stroke-width: 0px;
      }
    </style>
  </defs>
  <!-- Generator: Adobe Illustrator 28.7.7, SVG Export Plug-In . SVG Version: 1.2.0 Build 194)  -->
  <g>
    <g id="Layer_1">
      <g>
        <path class="cls-2" d="M-68.73,15.77h0c-.43,0-.85-.03-1.26-.08-.07,0-.13-.04-.18-.09-.03-.04-.12-.12-.22-.23-.5-.53-.79-.84-.87-.96-.25-.37-.43-.77-.56-1.19-.04-.12.01-.26.12-.33l5.03-3.39c.11-.07.25-.07.35.01.35.27.65.6.9.96.21.31.37.64.5,1,.01,0,.03,0,.04,0,.02,0,.06,0,.1-.04,0,0,.67-.66,1.02-1.01.29-.29,1.88-1.89,2.68-2.69.27-.27.45-.45.45-.46.04-.04.05-.1.03-.15-.35-.12-.67-.28-.98-.49-.37-.25-.69-.55-.96-.9-.08-.1-.09-.24-.01-.35l3.24-4.81c.2-.3.27-.4.48-.33.42.12.82.31,1.19.56.13.08.47.4,1.02.93.09.09.16.16.2.19.04.04.07.09.09.15.85,3.52-.97,7.82-4.52,10.71-2.34,1.9-5.2,2.99-7.85,2.99ZM-69.81,15.11c.35.04.71.06,1.07.06,2.52,0,5.24-1.04,7.48-2.86,3.35-2.72,5.08-6.74,4.34-10.02-.04-.03-.08-.08-.14-.13-.23-.22-.83-.79-.94-.87-.26-.17-.53-.31-.82-.41-.53.79-2.61,3.87-3.14,4.66.2.23.43.43.69.6.28.19.59.34.92.45.07.02.12.06.16.12.25.29.23.72-.04,1,0,0-.19.19-.45.45-.8.8-2.39,2.4-2.68,2.69-.35.35-1.01,1-1.02,1.01-.14.14-.32.21-.52.21-.18,0-.35-.06-.49-.18-.04-.04-.07-.08-.09-.14-.11-.34-.26-.66-.46-.95-.17-.26-.37-.49-.6-.69l-4.66,3.14c.1.29.24.56.41.82.07.1.59.65.81.88.06.06.11.12.15.16Z"/>
        <path class="cls-2" d="M-61.33,6.72c-.06,0-.12-.02-.17-.05-.14-.09-.17-.28-.08-.41l3.47-5.11c.09-.14.28-.17.41-.08.14.09.17.28.08.41l-3.47,5.11c-.06.08-.15.13-.25.13Z"/>
        <path class="cls-2" d="M-70.82,14.57c-.1,0-.19-.05-.25-.13-.09-.14-.06-.32.08-.41l5.11-3.47c.14-.09.32-.06.41.08.09.14.06.32-.08.41l-5.11,3.47c-.05.03-.11.05-.17.05Z"/>
      </g>
      <g>
        <path class="cls-1" d="M-21.57,14.3h-12.86c-.7,0-1.28-.58-1.28-1.3V3.46c0-.72.57-1.3,1.28-1.3h12.86c.7,0,1.28.58,1.28,1.3v9.54c0,.72-.57,1.3-1.28,1.3ZM-34.43,2.94c-.27,0-.5.23-.5.52v9.54c0,.29.22.52.5.52h12.86c.27,0,.5-.23.5-.52V3.46c0-.29-.22-.52-.5-.52h-12.86Z"/>
        <path class="cls-1" d="M-28,11.92c-.34,0-.66-.14-.91-.38l-6.69-6.86c-.07-.07-.11-.17-.11-.27v-.95c0-.72.57-1.3,1.28-1.3h12.86c.7,0,1.28.58,1.28,1.3v.95c0,.1-.04.2-.11.27l-6.69,6.86c-.24.25-.56.38-.91.38ZM-34.93,4.25l6.58,6.74c.19.19.51.19.7,0l6.58-6.74v-.79c0-.29-.22-.52-.5-.52h-12.86c-.27,0-.5.23-.5.52v.79Z"/>
        <path class="cls-1" d="M-35.11,13.97c-.1,0-.2-.04-.27-.11-.15-.15-.16-.4,0-.55l4.37-4.48c.15-.15.4-.16.55,0,.15.15.16.4,0,.55l-4.37,4.48c-.08.08-.18.12-.28.12Z"/>
        <path class="cls-1" d="M-21.04,14.12c-.1,0-.2-.04-.28-.12l-4.37-4.48c-.15-.15-.15-.4,0-.55.15-.15.4-.15.55,0l4.37,4.48c.15.15.15.4,0,.55-.08.07-.17.11-.27.11Z"/>
      </g>
      <g>
        <path class="cls-3" d="M8,15.86C3.66,15.86.14,12.34.14,8S3.66.14,8,.14s7.86,3.53,7.86,7.86-3.53,7.86-7.86,7.86ZM8,1.09C4.19,1.09,1.09,4.19,1.09,8s3.1,6.91,6.91,6.91,6.91-3.1,6.91-6.91S11.81,1.09,8,1.09Z"/>
        <path class="cls-3" d="M8,15.86c-2.54,0-4.52-3.43-4.52-7.8S5.46.27,8,.27s4.52,3.43,4.52,7.8-1.99,7.8-4.52,7.8ZM8,1.22c-1.93,0-3.57,3.13-3.57,6.84s1.63,6.84,3.57,6.84,3.57-3.13,3.57-6.84-1.63-6.84-3.57-6.84Z"/>
        <path class="cls-3" d="M8,15.86c-.26,0-.48-.21-.48-.48V.74c0-.26.21-.48.48-.48s.48.21.48.48v14.64c0,.26-.21.48-.48.48Z"/>
        <path class="cls-3" d="M14.49,5.59H1.26c-.26,0-.48-.21-.48-.48s.21-.48.48-.48h13.23c.26,0,.48.21.48.48s-.21.48-.48.48Z"/>
        <path class="cls-3" d="M14.49,11.88H1.77c-.26,0-.48-.21-.48-.48s.21-.48.48-.48h12.71c.26,0,.48.21.48.48s-.21.48-.48.48Z"/>
      </g>
    </g>
  </g>
</svg>